<svg id="SvgjsSvg1290108" width="14" height="29" xmlns="http://www.w3.org/2000/svg" version="1.1" xmlns:xlink="http://www.w3.org/1999/xlink" xmlns:svgjs="http://svgjs.com/svgjs" viewBox="0.26519775390625 0 13.469531059265137 29" fill="#252825" opacity="1">
  <defs id="SvgjsDefs1290109"></defs>
  <svg version="1.1" xmlns="http://www.w3.org/2000/svg" xmlns:xlink="http://www.w3.org/1999/xlink" width="14" height="29" viewBox="1.99643 1.99778 13.007 28.0043">
    <g>
      <path fill="#252825" stroke="none" paint-order="stroke fill markers" fill-rule="evenodd" d=" M 10.645187377929688 30.002127528190613 C 10.645187377929688 30.002127528190613 4.8776702880859375 30.002127528190613 4.8776702880859375 30.002127528190613 C 4.8776702880859375 30.002127528190613 4.8776702880859375 15.99769914150238 4.8776702880859375 15.99769914150238 C 4.8776702880859375 15.99769914150238 1.996429443359375 15.99769914150238 1.996429443359375 15.99769914150238 C 1.996429443359375 15.99769914150238 1.996429443359375 11.172512412071228 1.996429443359375 11.172512412071228 C 1.996429443359375 11.172512412071228 4.8776702880859375 11.172512412071228 4.8776702880859375 11.172512412071228 C 4.8776702880859375 11.172512412071228 4.8776702880859375 8.275265336036682 4.8776702880859375 8.275265336036682 C 4.8776702880859375 4.337661504745483 6.5042572021484375 1.997778058052063 11.127365112304688 1.997778058052063 C 11.127365112304688 1.997778058052063 14.976394653320312 1.997778058052063 14.976394653320312 1.997778058052063 C 14.976394653320312 1.997778058052063 14.976394653320312 6.8239136934280396 14.976394653320312 6.8239136934280396 C 14.976394653320312 6.8239136934280396 12.570465087890625 6.8239136934280396 12.570465087890625 6.8239136934280396 C 10.77099609375 6.8239136934280396 10.652206420898438 7.497874140739441 10.652206420898438 8.756242036819458 C 10.652206420898438 8.756242036819458 10.645187377929688 11.172512412071228 10.645187377929688 11.172512412071228 C 10.645187377929688 11.172512412071228 15.00347900390625 11.172512412071228 15.00347900390625 11.172512412071228 C 15.00347900390625 11.172512412071228 14.494140625 15.99769914150238 14.494140625 15.99769914150238 C 14.494140625 15.99769914150238 10.645187377929688 15.99769914150238 10.645187377929688 15.99769914150238 C 10.645187377929688 15.99769914150238 10.645187377929688 30.002127528190613 10.645187377929688 30.002127528190613 C 10.645187377929688 30.002127528190613 10.645187377929688 30.002127528190613 10.645187377929688 30.002127528190613 Z"></path>
    </g>
  </svg>
</svg>