<svg id="SvgjsSvg1269726" width="30" height="28" xmlns="http://www.w3.org/2000/svg" version="1.1" xmlns:xlink="http://www.w3.org/1999/xlink" xmlns:svgjs="http://svgjs.com/svgjs" viewBox="0 0.03448486328125 30 27.930957794189453" fill="#272c2c" opacity="1"><defs id="SvgjsDefs1269727"></defs><svg version="1.1" xmlns="http://www.w3.org/2000/svg" xmlns:xlink="http://www.w3.org/1999/xlink" width="30" height="28" viewBox="1.99976 1.9997 29.0001 27.0001"><g><path fill="#272c2c" stroke="none" paint-order="stroke fill markers" fill-rule="evenodd" d=" M 26.166473388671875 1.999704122543335 C 28.835769653320312 1.999704122543335 30.999847412109375 4.15834653377533 30.999847412109375 6.82109522819519 C 30.999847412109375 9.483962535858154 28.835769653320312 11.642604947090149 26.166473388671875 11.642604947090149 C 23.497100830078125 11.642604947090149 21.333099365234375 9.483962535858154 21.333099365234375 6.82109522819519 C 21.333099365234375 4.15834653377533 23.497100830078125 1.999704122543335 26.166473388671875 1.999704122543335 Z M 6.8331298828125 10.678279280662537 C 9.50250244140625 10.678279280662537 11.666427612304688 12.834312200546265 11.666427612304688 15.493976950645447 C 11.666427612304688 18.15364170074463 9.50250244140625 20.309556007385254 6.8331298828125 20.309556007385254 C 4.1638336181640625 20.309556007385254 1.999755859375 18.15364170074463 1.999755859375 15.493976950645447 C 1.999755859375 12.834312200546265 4.1638336181640625 10.678279280662537 6.8331298828125 10.678279280662537 Z M 26.166473388671875 19.35685443878174 C 28.835769653320312 19.35685443878174 30.999847412109375 21.515496850013733 30.999847412109375 24.178245544433594 C 30.999847412109375 26.841112852096558 28.835769653320312 28.999755263328552 26.166473388671875 28.999755263328552 C 23.497100830078125 28.999755263328552 21.333099365234375 26.841112852096558 21.333099365234375 24.178245544433594 C 21.333099365234375 21.515496850013733 23.497100830078125 19.35685443878174 26.166473388671875 19.35685443878174 Z M 6.435943603515625 15.98740804195404 C 6.435943603515625 15.98740804195404 5.4231414794921875 13.276739597320557 5.4231414794921875 13.276739597320557 C 5.4231414794921875 13.276739597320557 26.25665283203125 5.531294822692871 26.25665283203125 5.531294822692871 C 26.25665283203125 5.531294822692871 27.269378662109375 8.241963267326355 27.269378662109375 8.241963267326355 C 27.269378662109375 8.241963267326355 6.435943603515625 15.98740804195404 6.435943603515625 15.98740804195404 Z M 5.7162628173828125 16.69730830192566 C 5.7162628173828125 16.69730830192566 6.98785400390625 14.097424626350403 6.98785400390625 14.097424626350403 C 6.98785400390625 14.097424626350403 26.969619750976562 23.822880268096924 26.969619750976562 23.822880268096924 C 26.969619750976562 23.822880268096924 25.697952270507812 26.422882556915283 25.697952270507812 26.422882556915283 C 25.697952270507812 26.422882556915283 5.7162628173828125 16.69730830192566 5.7162628173828125 16.69730830192566 Z"></path></g></svg></svg>