<svg id="SvgjsSvg1268137" width="34" height="34" xmlns="http://www.w3.org/2000/svg" version="1.1" xmlns:xlink="http://www.w3.org/1999/xlink" xmlns:svgjs="http://svgjs.com/svgjs" viewBox="0 0 34 34" fill="#252825" opacity="1"><defs id="SvgjsDefs1268138"></defs><svg version="1.1" xmlns="http://www.w3.org/2000/svg" xmlns:xlink="http://www.w3.org/1999/xlink" width="34" height="34" viewBox="1.99976 1.99974 33 33"><g><path fill="#252825" stroke="none" paint-order="stroke fill markers" fill-rule="evenodd" d=" M 18.499618530273438 1.9997379779815674 C 27.612472534179688 1.9997379779815674 34.99971008300781 9.38697075843811 34.99971008300781 18.499670386314392 C 34.99971008300781 27.612488627433777 27.612472534179688 34.99972140789032 18.499618530273438 34.99972140789032 C 9.387069702148438 34.99972140789032 1.999755859375 27.612488627433777 1.999755859375 18.499670386314392 C 1.999755859375 9.38697075843811 9.387069702148438 1.9997379779815674 18.499618530273438 1.9997379779815674 Z M 18.499618530273438 5.299677014350891 C 25.789886474609375 5.299677014350891 31.699615478515625 11.209581851959229 31.699615478515625 18.499670386314392 C 31.699615478515625 25.78987753391266 25.789886474609375 31.699782371520996 18.499618530273438 31.699782371520996 C 11.209579467773438 31.699782371520996 5.2996978759765625 25.78987753391266 5.2996978759765625 18.499670386314392 C 5.2996978759765625 11.209581851959229 11.209579467773438 5.299677014350891 18.499618530273438 5.299677014350891 Z M 11.899734497070312 5.299677014350891 C 11.899734497070312 5.299677014350891 21.799789428710938 17.399651169776917 23.999725341796875 31.699782371520996 C 23.999725341796875 31.699782371520996 26.199737548828125 29.499743938446045 26.199737548828125 29.499743938446045 C 26.199737548828125 29.499743938446045 23.999725341796875 15.199849963188171 14.09967041015625 4.1997764110565186 C 14.09967041015625 4.1997764110565186 11.899734497070312 5.299677014350891 11.899734497070312 5.299677014350891 Z M 27.299667358398438 7.499596834182739 C 27.299667358398438 7.499596834182739 24.361282348632812 10.533486366271973 18.499618530273438 12.999692916870117 C 13.401657104492188 15.144813418388367 6.6815338134765625 15.711310267448425 3.099761962890625 15.199849963188171 C 3.099761962890625 15.199849963188171 3.099761962890625 17.399651169776917 3.099761962890625 17.399651169776917 C 3.099761962890625 17.399651169776917 14.09967041015625 20.699708819389343 30.599685668945312 8.599734663963318 C 30.599685668945312 8.599734663963318 27.299667358398438 7.499596834182739 27.299667358398438 7.499596834182739 Z M 7.499786376953125 28.39972472190857 C 7.499786376953125 28.39972472190857 14.09967041015625 12.999692916870117 32.799774169921875 18.499670386314392 C 32.799774169921875 18.499670386314392 32.799774169921875 20.699708819389343 32.799774169921875 20.699708819389343 C 32.799774169921875 20.699708819389343 17.399688720703125 15.199849963188171 9.69964599609375 29.499743938446045 C 9.69964599609375 29.499743938446045 7.499786376953125 28.39972472190857 7.499786376953125 28.39972472190857 Z"></path></g></svg></svg>