<svg id="SvgjsSvg957090" width="69" height="86" xmlns="http://www.w3.org/2000/svg" version="1.1" xmlns:xlink="http://www.w3.org/1999/xlink" xmlns:svgjs="http://svgjs.com/svgjs" viewBox="0.10009765625 0 68.7998046875 86" fill="#ffffff" opacity="1">
  <defs id="SvgjsDefs957091"></defs>
  <svg version="1.1" xmlns="http://www.w3.org/2000/svg" xmlns:xlink="http://www.w3.org/1999/xlink" width="69" height="86" viewBox="1.99945 1.99944 67.9999 85">
    <g>
      <path fill="#ffffff" stroke="none" paint-order="stroke fill markers" fill-rule="evenodd" d=" M 1.99945068359375 27.499507427215576 C 1.99945068359375 27.499507427215576 52.99913024902344 27.499507427215576 52.99913024902344 27.499507427215576 C 52.99913024902344 27.499507427215576 52.99913024902344 78.49940633773804 52.99913024902344 78.49940633773804 C 52.99913024902344 78.49940633773804 1.99945068359375 78.49940633773804 1.99945068359375 78.49940633773804 C 1.99945068359375 78.49940633773804 1.99945068359375 27.499507427215576 1.99945068359375 27.499507427215576 Z M 9.082656860351562 72.8326586484909 C 9.082656860351562 72.8326586484909 45.915924072265625 72.8326586484909 45.915924072265625 72.8326586484909 C 49.827972412109375 72.8326586484909 52.99913024902344 76.00425815582275 52.99913024902344 79.91600430011749 C 52.99913024902344 83.82822489738464 49.827972412109375 86.99946856498718 45.915924072265625 86.99946856498718 C 45.915924072265625 86.99946856498718 9.082656860351562 86.99946856498718 9.082656860351562 86.99946856498718 C 5.1704559326171875 86.99946856498718 1.99945068359375 83.82822489738464 1.99945068359375 79.91600430011749 C 1.99945068359375 76.00425815582275 5.1704559326171875 72.8326586484909 9.082656860351562 72.8326586484909 Z M 60.0826416015625 35.999332427978516 C 65.55947875976562 35.999332427978516 69.99932861328125 40.439263343811035 69.99932861328125 45.91622984409332 C 69.99932861328125 45.91622984409332 69.99932861328125 65.74943161010742 69.99932861328125 65.74943161010742 C 69.99932861328125 71.2262794971466 65.55947875976562 75.66609179973602 60.0826416015625 75.66609179973602 C 54.605804443359375 75.66609179973602 50.165802001953125 71.2262794971466 50.165802001953125 65.74943161010742 C 50.165802001953125 65.74943161010742 50.165802001953125 45.91622984409332 50.165802001953125 45.91622984409332 C 50.165802001953125 40.439263343811035 54.605804443359375 35.999332427978516 60.0826416015625 35.999332427978516 Z M 50.165802001953125 35.999332427978516 C 50.165802001953125 35.999332427978516 58.666015625 35.999332427978516 58.666015625 35.999332427978516 C 58.666015625 35.999332427978516 58.666015625 41.66619873046875 58.666015625 41.66619873046875 C 58.666015625 41.66619873046875 50.165802001953125 41.66619873046875 50.165802001953125 41.66619873046875 C 50.165802001953125 41.66619873046875 50.165802001953125 35.999332427978516 50.165802001953125 35.999332427978516 Z M 50.165802001953125 69.99934411048889 C 50.165802001953125 69.99934411048889 58.666015625 69.99934411048889 58.666015625 69.99934411048889 C 58.666015625 69.99934411048889 58.666015625 75.66609179973602 58.666015625 75.66609179973602 C 58.666015625 75.66609179973602 50.165802001953125 75.66609179973602 50.165802001953125 75.66609179973602 C 50.165802001953125 75.66609179973602 50.165802001953125 69.99934411048889 50.165802001953125 69.99934411048889 Z M 58.666015625 44.49939465522766 C 61.79551696777344 44.49939465522766 64.33244323730469 47.03641331195831 64.33244323730469 50.16614234447479 C 64.33244323730469 50.16614234447479 64.33244323730469 61.49951910972595 64.33244323730469 61.49951910972595 C 64.33244323730469 64.62901091575623 61.79551696777344 67.16614818572998 58.666015625 67.16614818572998 C 55.53643798828125 67.16614818572998 52.99913024902344 64.62901091575623 52.99913024902344 61.49951910972595 C 52.99913024902344 61.49951910972595 52.99913024902344 50.16614234447479 52.99913024902344 50.16614234447479 C 52.99913024902344 47.03641331195831 55.53643798828125 44.49939465522766 58.666015625 44.49939465522766 Z M 52.99913024902344 44.49939465522766 C 52.99913024902344 44.49939465522766 58.666015625 44.49939465522766 58.666015625 44.49939465522766 C 58.666015625 44.49939465522766 58.666015625 50.16614234447479 58.666015625 50.16614234447479 C 58.666015625 50.16614234447479 52.99913024902344 50.16614234447479 52.99913024902344 50.16614234447479 C 52.99913024902344 50.16614234447479 52.99913024902344 44.49939465522766 52.99913024902344 44.49939465522766 Z M 52.99913024902344 61.49951910972595 C 52.99913024902344 61.49951910972595 58.666015625 61.49951910972595 58.666015625 61.49951910972595 C 58.666015625 61.49951910972595 58.666015625 67.16614818572998 58.666015625 67.16614818572998 C 58.666015625 67.16614818572998 52.99913024902344 67.16614818572998 52.99913024902344 67.16614818572998 C 52.99913024902344 67.16614818572998 52.99913024902344 61.49951910972595 52.99913024902344 61.49951910972595 Z M 10.49920654296875 41.66619873046875 C 10.49920654296875 41.66619873046875 16.165863037109375 41.66619873046875 16.165863037109375 41.66619873046875 C 16.165863037109375 41.66619873046875 16.165863037109375 72.8326586484909 16.165863037109375 72.8326586484909 C 16.165863037109375 72.8326586484909 10.49920654296875 72.8326586484909 10.49920654296875 72.8326586484909 C 10.49920654296875 72.8326586484909 10.49920654296875 41.66619873046875 10.49920654296875 41.66619873046875 Z M 24.666000366210938 41.66619873046875 C 24.666000366210938 41.66619873046875 30.332504272460938 41.66619873046875 30.332504272460938 41.66619873046875 C 30.332504272460938 41.66619873046875 30.332504272460938 72.8326586484909 30.332504272460938 72.8326586484909 C 30.332504272460938 72.8326586484909 24.666000366210938 72.8326586484909 24.666000366210938 72.8326586484909 C 24.666000366210938 72.8326586484909 24.666000366210938 41.66619873046875 24.666000366210938 41.66619873046875 Z M 38.832489013671875 41.66619873046875 C 38.832489013671875 41.66619873046875 44.4991455078125 41.66619873046875 44.4991455078125 41.66619873046875 C 44.4991455078125 41.66619873046875 44.4991455078125 72.8326586484909 44.4991455078125 72.8326586484909 C 44.4991455078125 72.8326586484909 38.832489013671875 72.8326586484909 38.832489013671875 72.8326586484909 C 38.832489013671875 72.8326586484909 38.832489013671875 41.66619873046875 38.832489013671875 41.66619873046875 Z M 21.832443237304688 21.832641124725342 C 28.091903686523438 21.832641124725342 33.16583251953125 25.004003405570984 33.16583251953125 28.915868163108826 C 33.16583251953125 32.82832598686218 28.091903686523438 35.999332427978516 21.832443237304688 35.999332427978516 C 15.573440551757812 35.999332427978516 10.49920654296875 32.82832598686218 10.49920654296875 28.915868163108826 C 10.49920654296875 25.004003405570984 15.573440551757812 21.832641124725342 21.832443237304688 21.832641124725342 Z M 41.665740966796875 16.166130661964417 C 47.92527770996094 16.166130661964417 52.99913024902344 20.605942964553833 52.99913024902344 26.082790851593018 C 52.99913024902344 31.559638738632202 47.92527770996094 35.999332427978516 41.665740966796875 35.999332427978516 C 35.40673828125 35.999332427978516 30.332504272460938 31.559638738632202 30.332504272460938 26.082790851593018 C 30.332504272460938 20.605942964553833 35.40673828125 16.166130661964417 41.665740966796875 16.166130661964417 Z M 9.082656860351562 16.166130661964417 C 12.994552612304688 16.166130661964417 16.165863037109375 19.337255716323853 16.165863037109375 23.2493577003479 C 16.165863037109375 27.161222457885742 12.994552612304688 30.33282196521759 9.082656860351562 30.33282196521759 C 5.1704559326171875 30.33282196521759 1.99945068359375 27.161222457885742 1.99945068359375 23.2493577003479 C 1.99945068359375 19.337255716323853 5.1704559326171875 16.166130661964417 9.082656860351562 16.166130661964417 Z M 24.666000366210938 1.9994393587112427 C 30.925003051757812 1.9994393587112427 35.9993896484375 7.073476672172546 35.9993896484375 13.332934737205505 C 35.9993896484375 19.592036962509155 30.925003051757812 24.66607427597046 24.666000366210938 24.66607427597046 C 18.406845092773438 24.66607427597046 13.332687377929688 19.592036962509155 13.332687377929688 13.332934737205505 C 13.332687377929688 7.073476672172546 18.406845092773438 1.9994393587112427 24.666000366210938 1.9994393587112427 Z M 41.665740966796875 10.499382972717285 C 47.92527770996094 10.499382972717285 52.99913024902344 14.939313888549805 52.99913024902344 20.41616177558899 C 52.99913024902344 25.892772436141968 47.92527770996094 30.33282196521759 41.665740966796875 30.33282196521759 C 35.40673828125 30.33282196521759 30.332504272460938 25.892772436141968 30.332504272460938 20.41616177558899 C 30.332504272460938 14.939313888549805 35.40673828125 10.499382972717285 41.665740966796875 10.499382972717285 Z M 21.832443237304688 16.166130661964417 C 28.091903686523438 16.166130661964417 33.16583251953125 19.337255716323853 33.16583251953125 23.2493577003479 C 33.16583251953125 27.161222457885742 28.091903686523438 30.33282196521759 21.832443237304688 30.33282196521759 C 15.573440551757812 30.33282196521759 10.49920654296875 27.161222457885742 10.49920654296875 23.2493577003479 C 10.49920654296875 19.337255716323853 15.573440551757812 16.166130661964417 21.832443237304688 16.166130661964417 Z M 9.082656860351562 10.499382972717285 C 12.994552612304688 10.499382972717285 16.165863037109375 13.670745253562927 16.165863037109375 17.582847237586975 C 16.165863037109375 21.494711995124817 12.994552612304688 24.66607427597046 9.082656860351562 24.66607427597046 C 5.1704559326171875 24.66607427597046 1.99945068359375 21.494711995124817 1.99945068359375 17.582847237586975 C 1.99945068359375 13.670745253562927 5.1704559326171875 10.499382972717285 9.082656860351562 10.499382972717285 Z"></path>
    </g>
  </svg>
</svg>