<svg id="SvgjsSvg1264962" width="30" height="25" xmlns="http://www.w3.org/2000/svg" version="1.1" xmlns:xlink="http://www.w3.org/1999/xlink" xmlns:svgjs="http://svgjs.com/svgjs" viewBox="0 0.0751953125 30 24.849609375" fill="#252825" opacity="1"><defs id="SvgjsDefs1264963"></defs><svg version="1.1" xmlns="http://www.w3.org/2000/svg" xmlns:xlink="http://www.w3.org/1999/xlink" width="30" height="25" viewBox="1.99977 1.99979 29 24.0213"><g><path fill="#252825" stroke="none" paint-order="stroke fill markers" fill-rule="evenodd" d=" M 30.999786376953125 4.7657310962677 C 30.999786376953125 4.7657310962677 28.280975341796875 7.531554698944092 28.280975341796875 7.531554698944092 C 28.280975341796875 7.531554698944092 28.280975341796875 7.280924916267395 28.280975341796875 7.992604374885559 C 28.280975341796875 8.498134016990662 28.201019287109375 8.981008529663086 28.085205078125 9.449886679649353 C 28.021881103515625 13.254880905151367 26.830474853515625 18.300569653511047 21.937286376953125 22.283127903938293 C 12.311965942382812 30.116939544677734 1.9997711181640625 23.205108642578125 1.9997711181640625 23.205108642578125 C 10.156051635742188 23.205108642578125 10.156051635742188 20.43916642665863 10.156051635742188 20.43916642665863 C 8.343536376953125 20.43916642665863 4.7185821533203125 16.751362085342407 4.7185821533203125 16.751362085342407 C 5.6248016357421875 17.673224210739136 7.43731689453125 16.751362085342407 7.43731689453125 16.751362085342407 C 2.9059906005859375 13.985419869422913 2.9059906005859375 11.219477653503418 2.9059906005859375 11.219477653503418 C 3.812286376953125 12.14145839214325 5.6248016357421875 11.219477653503418 5.6248016357421875 11.219477653503418 C 1.0935516357421875 7.531554698944092 3.812286376953125 2.921651005744934 3.812286376953125 2.921651005744934 C 4.7185821533203125 7.531554698944092 16.49981689453125 9.375516176223755 16.49981689453125 9.375516176223755 C 16.49981689453125 9.375516176223755 16.649658203125 9.299247860908508 16.649658203125 9.299247860908508 C 16.55718994140625 8.877577781677246 16.49981689453125 7.981691956520081 16.49981689453125 7.531554698944092 C 16.49981689453125 4.22188937664032 19.137069702148438 1.9997888803482056 22.390396118164062 1.9997888803482056 C 24.181015014648438 1.9997888803482056 25.765487670898438 2.829962968826294 26.845733642578125 4.112883806228638 C 26.845733642578125 4.112883806228638 27.374755859375 3.8437503576278687 27.374755859375 3.8437503576278687 C 27.374755859375 3.8437503576278687 30.09356689453125 1.9997888803482056 30.09356689453125 1.9997888803482056 C 30.09356689453125 1.9997888803482056 28.280975341796875 5.687711834907532 28.280975341796875 5.687711834907532 C 28.280975341796875 5.687711834907532 30.999786376953125 4.7657310962677 30.999786376953125 4.7657310962677 Z"></path></g></svg></svg>